<?xml version="1.0"?>
<svg xmlns="http://www.w3.org/2000/svg" xmlns:xlink="http://www.w3.org/1999/xlink" xmlns:svgjs="http://svgjs.com/svgjs" version="1.1" width="512" height="512" x="0" y="0" viewBox="0 0 60 61" style="enable-background:new 0 0 512 512" xml:space="preserve" class=""><g><link type="text/css" rel="stylesheet" id="dark-mode-general-link"/><link type="text/css" rel="stylesheet" id="dark-mode-custom-link"/><style lang="en" type="text/css" id="dark-mode-custom-style"/><g xmlns="http://www.w3.org/2000/svg" id="Page-1" fill="none" fill-rule="evenodd"><g id="012---Suitcases" fill="rgb(0,0,0)" fill-rule="nonzero"><path id="Shape" d="m1.928 52.793c-.59834075.7758708-.92447642 1.727217-.928 2.707-.002341 1.9292969 1.22541376 3.6454189 3.05212092 4.266171s3.84586193.0079957 5.01949144-1.5232737c1.17362954-1.5312694 1.24056104-3.640292.16638764-5.2428973h11.524c-1.2937125 1.9055102-.9429969 4.4797926.8133112 5.9697735s4.3533301 1.41644 6.0225066-.1705416c1.6691766-1.5869816 1.8736532-4.1769856.4741822-6.0062319 1.1581218-.4430834 1.9243066-1.553018 1.928-2.793v-33c0-1.6568542-1.3431458-3-3-3h-5v-7c1.1045695 0 2-.8954305 2-2v-1c0-2.209139-1.790861-4-4-4h-10c-2.209139 0-4 1.790861-4 4v1c0 1.1045695.8954305 2 2 2v7h-5c-1.65685425 0-3 1.3431458-3 3v33c.00369345 1.239982.76987816 2.3499166 1.928 2.793zm6.072-36.793h14c.0033074 3.3123376 2.6876624 5.9966926 6 6v23c-3.3123376.0033074-5.9966926 2.6876624-6 6h-14c-.00330738-3.3123376-2.68766243-5.9966926-6-6v-23c3.31233757-.0033074 5.99669262-2.6876624 6-6zm16 35c0-2.209139 1.790861-4 4-4v3c0 .5522847-.4477153 1-1 1zm-21 0c-.55228475 0-1-.4477153-1-1v-3c2.209139 0 4 1.790861 4 4zm2.5 7c-1.38071187 0-2.5-1.1192881-2.5-2.5s1.11928813-2.5 2.5-2.5 2.5 1.1192881 2.5 2.5-1.11928813 2.5-2.5 2.5zm19 0c-1.3807119 0-2.5-1.1192881-2.5-2.5s1.1192881-2.5 2.5-2.5 2.5 1.1192881 2.5 2.5-1.1192881 2.5-2.5 2.5zm3.5-41v3c-2.209139 0-4-1.790861-4-4h3c.5522847 0 1 .4477153 1 1zm-20-13c0-1.1045695.8954305-2 2-2h10c1.1045695 0 2 .8954305 2 2v1h-14zm2 3h10v7h-10zm-8 10c0-.5522847.44771525-1 1-1h3c0 2.209139-1.790861 4-4 4z" fill="#129c7e" data-original="#000000" style=""/><path id="Shape" d="m5 43c.55228475 0 1-.4477153 1-1v-17c0-.5522847-.44771525-1-1-1s-1 .4477153-1 1v17c0 .5522847.44771525 1 1 1z" fill="#129c7e" data-original="#000000" style=""/><path id="Shape" d="m9 43c.55228475 0 1-.4477153 1-1v-17c0-.5522847-.44771525-1-1-1s-1 .4477153-1 1v17c0 .5522847.44771525 1 1 1z" fill="#129c7e" data-original="#000000" style=""/><path id="Shape" d="m13 43c.5522847 0 1-.4477153 1-1v-17c0-.5522847-.4477153-1-1-1s-1 .4477153-1 1v17c0 .5522847.4477153 1 1 1z" fill="#129c7e" data-original="#000000" style=""/><path id="Shape" d="m17 43c.5522847 0 1-.4477153 1-1v-17c0-.5522847-.4477153-1-1-1s-1 .4477153-1 1v17c0 .5522847.4477153 1 1 1z" fill="#129c7e" data-original="#000000" style=""/><path id="Shape" d="m21 43c.5522847 0 1-.4477153 1-1v-17c0-.5522847-.4477153-1-1-1s-1 .4477153-1 1v17c0 .5522847.4477153 1 1 1z" fill="#129c7e" data-original="#000000" style=""/><path id="Shape" d="m25 43c.5522847 0 1-.4477153 1-1v-17c0-.5522847-.4477153-1-1-1s-1 .4477153-1 1v17c0 .5522847.4477153 1 1 1z" fill="#129c7e" data-original="#000000" style=""/><path id="Shape" d="m60 50v-25c0-1.6568542-1.3431458-3-3-3h-22c-1.6568542 0-3 1.3431458-3 3v25c.0024589.9575081.4630436 1.8560014 1.239 2.417-1.615075 1.7101855-1.6380987 4.3764661-.0527976 6.1142872s4.2424812 1.9591262 6.0934181.5074947c1.850937-1.4516316 2.2692972-4.0849863.9593795-6.0387819h11.523c-1.316004 1.9558107-.8996089 4.5957425.9545053 6.051532 1.8541141 1.4557895 4.5174618 1.2339707 6.1052085-.5084766 1.5877467-1.7424474 1.561697-4.4148894-.0597138-6.1260554.7755784-.5612134 1.2357734-1.4596717 1.238-2.417zm-26-25c0-.5522847.4477153-1 1-1h22c.5522847 0 1 .4477153 1 1v25c0 .5522847-.4477153 1-1 1h-22c-.5522847 0-1-.4477153-1-1zm5 30.5c0 1.3807119-1.1192881 2.5-2.5 2.5s-2.5-1.1192881-2.5-2.5 1.1192881-2.5 2.5-2.5 2.5 1.1192881 2.5 2.5zm16.5 2.5c-1.3807119 0-2.5-1.1192881-2.5-2.5s1.1192881-2.5 2.5-2.5 2.5 1.1192881 2.5 2.5-1.1192881 2.5-2.5 2.5z" fill="#129c7e" data-original="#000000" style=""/><path id="Shape" d="m37 29h16v1c0 .5522847.4477153 1 1 1s1-.4477153 1-1v-1c.5522847 0 1-.4477153 1-1s-.4477153-1-1-1h-18c-.5522847 0-1 .4477153-1 1s.4477153 1 1 1z" fill="#129c7e" data-original="#000000" style=""/><path id="Shape" d="m42 34c-.5522847 0-1 .4477153-1 1v12c0 .5522847.4477153 1 1 1s1-.4477153 1-1v-12c0-.5522847-.4477153-1-1-1z" fill="#129c7e" data-original="#000000" style=""/><path id="Shape" d="m38 34c-.5522847 0-1 .4477153-1 1v12c0 .5522847.4477153 1 1 1s1-.4477153 1-1v-12c0-.5522847-.4477153-1-1-1z" fill="#129c7e" data-original="#000000" style=""/><path id="Shape" d="m54 34c-.5522847 0-1 .4477153-1 1v12c0 .5522847.4477153 1 1 1s1-.4477153 1-1v-12c0-.5522847-.4477153-1-1-1z" fill="#129c7e" data-original="#000000" style=""/><path id="Shape" d="m46 34c-.5522847 0-1 .4477153-1 1v12c0 .5522847.4477153 1 1 1s1-.4477153 1-1v-12c0-.5522847-.4477153-1-1-1z" fill="#129c7e" data-original="#000000" style=""/><path id="Shape" d="m50 34c-.5522847 0-1 .4477153-1 1v12c0 .5522847.4477153 1 1 1s1-.4477153 1-1v-12c0-.5522847-.4477153-1-1-1z" fill="#129c7e" data-original="#000000" style=""/><path id="Shape" d="m47 0h-2c-2.7600532.00330612-4.9966939 2.23994685-5 5v.068c-1.3787077.24790002-2.5293652 1.19478738-3.038 2.5l-2.692 7c-.4712203 1.2290155-.3076432 2.6111941.4374428 3.696263.7450859 1.0850689 1.976303 1.7341295 3.2925572 1.735737h16c1.3178142-.0001154 2.5510176-.6493051 3.2970205-1.7356356s.9090748-2.4703989.4359795-3.7003644l-2.692-7c-.5101367-1.30458371-1.6619913-2.25000598-3.041-2.496v-.068c-.0033061-2.76005315-2.2399468-4.99669388-5-5zm-2 2h2c1.6568542 0 3 1.34314575 3 3h-8c0-1.65685425 1.3431458-3 3-3zm8.172 6.282 2.692 7c.2363897.6145703.1551305 1.3061187-.2172814 1.8491528-.372412.5430342-.9882537.8679667-1.6467186.8688472h-16c-.6589955.0001071-1.2757493-.3244202-1.6488687-.8676117s-.4547107-1.235323-.2181313-1.8503883l2.692-7c.3014291-.7726248 1.0456579-1.28147884 1.875-1.282h10.61c.8245897.00584892 1.5623113.51377539 1.862 1.282z" fill="#129c7e" data-original="#000000" style=""/><path id="Shape" d="m41 10c-.5522847 0-1 .4477153-1 1s.4477153 1 1 1h8v.344c0 .5522847.4477153 1 1 1s1-.4477153 1-1v-.344c.5522847 0 1-.4477153 1-1s-.4477153-1-1-1z" fill="#129c7e" data-original="#000000" style=""/></g></g></g></svg>
