<?xml version="1.0"?>
<svg xmlns="http://www.w3.org/2000/svg" xmlns:xlink="http://www.w3.org/1999/xlink" xmlns:svgjs="http://svgjs.com/svgjs" version="1.1" width="512" height="512" x="0" y="0" viewBox="0 0 512 512" style="enable-background:new 0 0 512 512" xml:space="preserve" class=""><g><link type="text/css" rel="stylesheet" id="dark-mode-general-link"/><link type="text/css" rel="stylesheet" id="dark-mode-custom-link"/><style lang="en" type="text/css" id="dark-mode-custom-style"/><g xmlns="http://www.w3.org/2000/svg"><path d="m510.334 499.766c-1.368-1.695-34.115-41.909-88.769-77.746-3.469-2.278-8.128-1.308-10.405 2.163-2.275 3.471-1.306 8.129 2.164 10.405 34.751 22.786 60.695 47.875 74.384 62.382h-463.407c15.934-16.872 48.468-48.057 92.228-73.384 6.787 8.219 17.052 13.465 28.519 13.465 20.388 0 36.975-16.586 36.975-36.974 0-1.802-.136-3.572-.386-5.306 24.861-7.667 49.844-11.562 74.363-11.562 43.727 0 88.158 12.177 132.062 36.195 1.145.626 2.381.923 3.6.923 2.658 0 5.234-1.413 6.6-3.909 1.991-3.641.655-8.207-2.986-10.2-25.492-13.945-51.202-24.084-76.913-30.373 8.523-72.654-9.206-136.788-23.091-173.563 15.669-4.292 27.22-18.648 27.22-35.659 0-.005 0-.01 0-.015l30.377 9.829c2.489.806 5.221.258 7.207-1.448l18.214-15.634 9.362 25.325c.799 2.16 2.544 3.835 4.736 4.544l83.214 26.924c.758.246 1.538.365 2.312.365 1.787 0 3.544-.637 4.931-1.842 1.988-1.729 2.927-4.372 2.473-6.967-.154-.879-3.914-21.788-17.208-45.892-17.741-32.167-44.168-54.685-76.426-65.122-15.122-4.893-30.762-6.882-46.532-6.001l-2.217-16.171 26.356 5.867c2.248.498 4.602-.059 6.385-1.515l18.244-14.895c3.215-2.625 3.694-7.359 1.068-10.574-2.624-3.215-7.358-3.694-10.573-1.069l-15.419 12.589-33.341-7.423c-2.402-.533-4.913.141-6.722 1.806-1.81 1.666-2.69 4.112-2.356 6.55l3.637 26.529c-12.937 2.199-25.88 6.305-38.62 12.316-10.929 5.158-20.007 10.892-26.809 15.756 3.262-25.783 13.852-56.332 42.264-79.53 23.456-19.15 52.095-27.751 85.126-25.578 12.534.827 23.379 3.134 31.113 5.246l-15.656 12.783c-3.215 2.624-3.694 7.359-1.068 10.573 2.624 3.214 7.357 3.693 10.573 1.069l26.286-21.461c2.041-1.666 3.06-4.279 2.686-6.886-.374-2.609-2.085-4.83-4.512-5.856-.822-.347-20.43-8.526-47.891-10.427-36.651-2.54-69.899 7.454-96.161 28.896-22.105 18.048-34.636 39.883-41.488 61.119-6.852-21.237-19.384-43.072-41.488-61.119-26.263-21.442-59.514-31.435-96.163-28.897-27.462 1.901-47.07 10.079-47.891 10.427-2.426 1.026-4.138 3.248-4.512 5.855-.374 2.609.646 5.221 2.686 6.888l67.747 55.313c1.784 1.457 4.138 2.015 6.385 1.515l26.357-5.867-2.218 16.177c-15.806-.896-31.481 1.091-46.635 5.995-13.627 4.409-26.258 10.951-37.545 19.446-1.343 1.012-2.684 2.063-3.983 3.123-3.215 2.624-3.695 7.358-1.07 10.573 2.624 3.214 7.359 3.695 10.573 1.07 1.149-.937 2.334-1.867 3.52-2.76 9.949-7.488 21.095-13.259 33.131-17.154 28.81-9.323 58.62-6.937 88.603 7.093 11.377 5.323 20.642 11.413 27.083 16.19l-82.113 26.568-23.213-19.926c-1.867-1.604-4.398-2.191-6.781-1.572-2.381.617-4.309 2.361-5.162 4.668l-11.844 32.036-66.678 21.575c3.681-11.597 10.867-29.46 23.79-46.322 2.525-3.294 1.901-8.012-1.393-10.536s-8.01-1.901-10.535 1.393c-23.765 31.01-29.771 64.152-30.015 65.547-.454 2.595.484 5.238 2.473 6.967 1.387 1.205 3.144 1.842 4.931 1.842.774 0 1.554-.119 2.312-.365l83.214-26.924c2.191-.709 3.937-2.384 4.735-4.544l9.363-25.325 18.214 15.634c1.986 1.706 4.716 2.256 7.208 1.448l30.481-9.862c0 .016-.001.033-.001.049 0 20.388 16.588 36.975 36.976 36.975 2.02 0 4-.169 5.932-.482 30.248 62.677 27.953 123.19 19.681 165.105-25.042.383-50.468 4.548-75.729 12.411-6.528-10.512-18.173-17.529-31.431-17.529-20.389 0-36.976 16.587-36.976 36.975 0 3.537.51 6.955 1.441 10.196-65.803 37.907-106.12 87.348-107.85 89.493-1.818 2.252-2.181 5.348-.932 7.96 1.248 2.612 3.885 4.274 6.78 4.274h496.971c2.894 0 5.531-1.662 6.78-4.274 1.248-2.611.885-5.708-.932-7.96zm-202.872-333.142c0 12.101-9.845 21.945-21.946 21.945-12.094 0-21.935-9.834-21.946-21.926 0-.007 0-.013 0-.019 0-.005 0-.01 0-.015.004-6.466 2.809-12.46 7.625-16.597l35.649 11.534c.395 1.657.618 3.352.618 5.078zm-9.008-48.541c29.979-14.028 59.79-16.414 88.603-7.093 28.81 9.322 51.572 28.717 67.653 57.649 6.102 10.979 10.044 21.342 12.465 28.985l-66.69-21.577-11.845-32.037c-.852-2.307-2.781-4.051-5.162-4.668-2.378-.617-4.914-.031-6.78 1.572l-23.213 19.926-82.113-26.568c6.44-4.777 15.706-10.866 27.082-16.189zm-78.041-13.383c-12.706-5.995-25.615-10.096-38.518-12.3l3.639-26.545c.334-2.437-.546-4.884-2.356-6.55-1.81-1.665-4.322-2.34-6.722-1.806l-33.342 7.423-54.292-44.329c7.736-2.111 18.582-4.419 31.114-5.246 33.03-2.177 61.67 6.427 85.126 25.578 28.442 23.222 39.023 53.812 42.273 79.612-6.813-4.881-15.93-10.65-26.922-15.837zm-15.765 61.924c0-1.738.227-3.445.628-5.115l35.612-11.522c4.837 4.141 7.653 10.151 7.653 16.637 0 12.101-9.845 21.945-21.946 21.945-12.102 0-21.947-9.844-21.947-21.945zm41.959 31.066c3.636-2.35 6.837-5.315 9.448-8.755 5.602 7.379 13.906 12.593 23.426 14.163 13.441 34.209 32.229 97.513 24.121 169.556-12.059-2.257-24.108-3.656-36.126-4.203 8.252-43.88 9.967-106.132-20.869-170.761zm-101.559 180.442c12.101 0 21.946 9.845 21.946 21.945s-9.845 21.944-21.946 21.944-21.946-9.844-21.946-21.944c-.001-12.1 9.844-21.945 21.946-21.945z" fill="#067a61" data-original="#000000" style="" class=""/></g></g></svg>
